.
..............................Site Info...........................

 -   http://www.scenetime.com  *_*   


Scenetime .Always on time . friendly online private torrent community ..

     We care to share . Join us on  http://www.scenetime.com 

    Be the first to get new release at  http://www.scenetime.com

        Seed back for speed


...................................NFO:.................................................[IMG]http://lookpic.com/O/i2/791/OW0uA1k.jpeg[/IMG]

MaryJane Presents

General
Complete name : DERAILED DVDRip - MaryJane.avi
Format : AVI
Format/Info : Audio Video Interleave
Format profile : OpenDML
File size : 1.40 GiB
Duration : 1h 42mn
Overall bit rate : 1 951 Kbps
Writing application : MEncoder version 4.4.0 building on 20110102

Video
ID : 0
Format : MPEG-4 Visual
Format profile : Advanced Simple@L5
Format settings, BVOP : 2
Format settings, QPel : No
Format settings, GMC : No warppoints
Format settings, Matrix : Default (H.263)
Codec ID : XVID
Codec ID/Hint : XviD
Duration : 1h 42mn
Bit rate : 1 560 Kbps
Width : 720 pixels
Height : 404 pixels
Display aspect ratio : 16:9
Original display aspect ratio : 16:9
Frame rate : 29.970 fps
Color space : YUV
Chroma subsampling : 4:2:0
Bit depth : 8 bits
Scan type : Progressive
Compression mode : Lossy
Bits/(Pixel*Frame)  : 0.179
Stream size : 1.12 GiB (80%)
Writing library : XviD 1.2.1 (UTC 2008-12-04)

Audio
ID : 1
Format : AC-3
Format/Info : Audio Coding 3
Mode extension : CM (complete main)
Format settings, Endianness : Big
Codec ID : 2000
Duration : 1h 42mn
Bit rate mode : Constant
Bit rate : 384 Kbps
Channel(s) : 6 channels
Channel positions : Front: L C R, Side: L R, LFE
Bit depth : 16 bits
Compression mode : Lossy
Delay relative to video : 33ms
Stream size : 282 MiB (20%)
Alignment : Split accross interleaves
Interleave, duration : 500 ms (14.98 video frames)
Interleave, preload duration : 500 ms

[IMG]http://lookpic.com/O/i2/1562/KxQxYHgA.png[/IMG]
[IMG]http://lookpic.com/O/i2/756/kyCbJG3b.png[/IMG]
[IMG]http://lookpic.com/O/i2/7/hTuf3Vpa.png[/IMG]